# xmcd CD database file
#
# Track frame offsets:
#	150
#	8695
#	40806
#	57010
#	75756
#	108816
#	126371
#	137028
#	155322
#	182974
#	202417
#	229735
#	237760
#
# Disc length: 3730 seconds
#
# Revision: 0
# Processed by: cddbd v1.5.2PL0 Copyright (c) Steve Scherf et al.
# Submitted via: CDex 1.70beta2
#
DISCID=9f0e900d
DTITLE=Octurn - - XPs [live] [CD2]
DYEAR=2008
DGENRE=Jazz
TTITLE0=xp23 (idriz junior)
TTITLE1=Talea Color
TTITLE2=xp28 (#2)
TTITLE3=Stupa3
TTITLE4=xp28 (#1)
TTITLE5=xp24
TTITLE6=xp27 (part 2#2)
TTITLE7=stupa2
TTITLE8=xp23 (#2)
TTITLE9=xp25
TTITLE10=xp27 (part 3#2)
TTITLE11=xp23 (coda)
TTITLE12=Irian
EXTD=YEAR: 2008
EXTT0=
EXTT1=
EXTT2=
EXTT3=
EXTT4=
EXTT5=
EXTT6=
EXTT7=
EXTT8=
EXTT9=
EXTT10=
EXTT11=
EXTT12=
PLAYORDER=
